<svg xmlns="http://www.w3.org/2000/svg" viewBox="0 0 100 100">
  <rect width="100" height="100" rx="20" fill="#1e1b4b"/>
  <g transform="translate(15,15)">
    <rect x="0" y="0" width="15" height="15" rx="3" fill="#4ade80"/>
    <rect x="18" y="0" width="15" height="15" rx="3" fill="#a3e635"/>
    <rect x="36" y="0" width="15" height="15" rx="3" fill="#facc15"/>
    <rect x="54" y="0" width="15" height="15" rx="3" fill="#4ade80"/>
    <rect x="0" y="18" width="15" height="15" rx="3" fill="#fb923c"/>
    <rect x="18" y="18" width="15" height="15" rx="3" fill="#4ade80"/>
    <rect x="36" y="18" width="15" height="15" rx="3" fill="#a3e635"/>
    <rect x="54" y="18" width="15" height="15" rx="3" fill="#facc15"/>
    <rect x="0" y="36" width="15" height="15" rx="3" fill="#4ade80"/>
    <rect x="18" y="36" width="15" height="15" rx="3" fill="#f87171"/>
    <rect x="36" y="36" width="15" height="15" rx="3" fill="#4ade80"/>
    <rect x="54" y="36" width="15" height="15" rx="3" fill="#a3e635"/>
    <rect x="0" y="54" width="15" height="15" rx="3" fill="#a3e635"/>
    <rect x="18" y="54" width="15" height="15" rx="3" fill="#4ade80"/>
    <rect x="36" y="54" width="15" height="15" rx="3" fill="#facc15"/>
    <rect x="54" y="54" width="15" height="15" rx="3" fill="#4ade80"/>
  </g>
</svg>
